<svg width="24" height="24" viewBox="0 0 24 24" fill="none" xmlns="http://www.w3.org/2000/svg"><path d="M16.8725 8.31375c-.1041-.26969-.2636-.51458-.4681-.71889-.2045-.20431-.4496-.36352-.7194-.46736a3.457693 3.457693 0 0 0-1.16-.215c-.6587-.03-.8562-.0375-2.525-.0375-1.6687 0-1.8662.0075-2.525.0375a3.457386 3.457386 0 0 0-1.16125.215 2.070015 2.070015 0 0 0-.71888.46812 2.069993 2.069993 0 0 0-.46737.71938 3.457757 3.457757 0 0 0-.215 1.16c-.03.6587-.0375.8562-.0375 2.525 0 1.6687.0075 1.8662.0375 2.525.00454.3965.07727.7894.215 1.1612.10413.2697.2636.5146.46812.7189.20453.2043.44959.3636.71938.4674.3715.1376.76388.2103 1.16.215.6588.03.8563.0362 2.525.0362 1.6688 0 1.8663-.0062 2.525-.0375.3965-.0041.7893-.0764 1.1613-.2137.2696-.1041.5145-.2636.7188-.4681.2044-.2045.3636-.4496.4674-.7194.1376-.3715.2103-.7639.215-1.16.03-.6588.0363-.8563.0363-2.525 0-1.6688-.0063-1.8663-.0375-2.525-.0042-.39648-.0765-.78929-.2138-1.16125ZM12 15.21c-.6349 0-1.2555-.1883-1.7834-.541a3.209737 3.209737 0 0 1-1.18225-1.4406c-.24296-.5865-.30653-1.232-.18267-1.8546.12386-.6227.42958-1.1947.87851-1.64361.44891-.44893 1.02091-.75465 1.64361-.87851.6226-.12386 1.2681-.06029 1.8546.18267.5866.24295 1.0879.65439 1.4406 1.18225.3527.5279.541 1.1485.541 1.7834 0 .8513-.3382 1.6678-.9402 2.2698-.602.602-1.4185.9402-2.2698.9402Zm3.3363-5.79625c-.1484 0-.2934-.04399-.4167-.1264-.1234-.08241-.2195-.19954-.2763-.33659-.0567-.13704-.0716-.28784-.0426-.43333a.749521.749521 0 0 1 .2052-.38401.749954.749954 0 0 1 .384-.20526.750223.750223 0 0 1 .4334.04268c.137.05676.2541.15289.3366.27623a.750096.750096 0 0 1 .1264.41668c0 .19891-.0791.38968-.2197.53033-.1407.14065-.3314.21967-.5303.21967ZM14.0838 12c0 .4121-.1223.815-.3512 1.1577-.229.3426-.5544.6097-.9352.7674-.3807.1577-.7997.199-1.2039.1186-.4042-.0804-.7755-.2789-1.0669-.5703-.2914-.2914-.4899-.6627-.57031-1.0669-.0804-.4042-.03913-.8232.11861-1.2039.1577-.3808.4248-.7062.7674-.9352.3427-.2289.7456-.35115 1.1577-.35115.5526 0 1.0827.21955 1.4734.61035.3908.3907.6104.9208.6104 1.4734ZM12 0C9.62663 0 7.30655.703788 5.33316 2.02236 3.35977 3.34094 1.8217 5.21508.913451 7.4078.005199 9.60051-.232441 12.0133.230582 14.3411c.463023 2.3278 1.605908 4.4659 3.284138 6.1442 1.67823 1.6782 3.81643 2.8211 6.1442 3.2841 2.32778.463 4.74058.2254 6.93328-.6828 2.1927-.9083 4.0669-2.4464 5.3854-4.4198C23.2962 16.6935 24 14.3734 24 12c0-3.1826-1.2643-6.23485-3.5147-8.48528C18.2348 1.26428 15.1826 0 12 0Zm6.2125 14.5762c-.0106.5187-.1091 1.0318-.2912 1.5175-.1606.4151-.4061.7921-.7208 1.1068s-.6916.5602-1.1067.7207c-.4854.1821-.9981.2806-1.5163.2913-.6675.03-.88.0375-2.5775.0375-1.6975 0-1.91-.0075-2.5775-.0375a4.585683 4.585683 0 0 1-1.51625-.2913c-.41509-.1605-.79208-.406-1.10678-.7207a3.195068 3.195068 0 0 1-.72072-1.1068 4.587628 4.587628 0 0 1-.29125-1.5162c-.03-.6675-.0375-.88-.0375-2.5775 0-1.6975.0075-1.91.0375-2.5775a4.587673 4.587673 0 0 1 .29-1.51625 3.195258 3.195258 0 0 1 .72107-1.10769 3.194957 3.194957 0 0 1 1.10768-.72106 4.587467 4.587467 0 0 1 1.51625-.29c.6675-.03.88-.0375 2.5775-.0375 1.6975 0 1.91.0075 2.5775.0375.5182.01032 1.0308.10838 1.5163.29.4152.16067.7922.40634 1.1069.72127.3148.31493.5602.69215.7206 1.10748.182.48533.2805.99801.2912 1.51625.03.6675.0375.88.0375 2.5775 0 1.6975-.0075 1.91-.0375 2.5775v-.0013Z" fill="#BFD2F8"/></svg>