<svg width="24" height="24" viewBox="0 0 24 24" fill="none" xmlns="http://www.w3.org/2000/svg"><path d="M12 0C5.3725 0 0 5.3725 0 12s5.3725 12 12 12 12-5.3725 12-12S18.6275 0 12 0ZM9.0625 16.9738h-2.43V9.15375h2.43v7.82005Zm-1.23-8.78005c-.7675 0-1.26375-.54375-1.26375-1.21625 0-.68625.51125-1.21375 1.295-1.21375s1.26375.5275 1.27875 1.21375c0 .6725-.495 1.21625-1.31 1.21625Zm10.105 8.78005h-2.43V12.64c0-1.0087-.3525-1.6938-1.2312-1.6938-.6713 0-1.07.4638-1.2463.9101-.065.1587-.0812.3837-.0812.6075v4.5087h-2.4313v-5.325c0-.9762-.0313-1.7925-.0638-2.495h2.1113l.1113 1.0863h.0487c.32-.51005 1.1038-1.26255 2.415-1.26255 1.5988 0 2.7975 1.07125 2.7975 3.37375v4.6238Z" fill="#BFD2F8"/></svg>