<svg width="191" height="27" viewBox="0 0 191 27" fill="none" xmlns="http://www.w3.org/2000/svg"><path d="M4.04 5.3v19.08l2.88 1.08V26H.08v-.54l2.88-1.08V1.88L.8 1.34V.799998h4.5c1.248 0 2.232.264002 2.952.792002.744.504 1.38 1.26 1.908 2.268l7.848 15.012L24.02 3.86c.408-1.056.96-1.824 1.656-2.304.696-.504 1.764-.756002 3.204-.756002h3.78V1.34l-2.16.54v23.04l2.16.54V26H22.4v-.54l2.16-.54V5.3L16.1 26.36h-1.08L4.04 5.3Zm31.8811 20.16 2.16-.54V1.88l-2.16-.54V.799998h19.26V7.28h-1.08c-.456-.36-.852-.816-1.188-1.368-.768-1.296-1.152-2.7-1.152-4.212h-7.74v11.34h4.14c.168-.912.48-1.764.936-2.556.192-.36.42-.708.684-1.044h1.08v8.1h-1.08c-.264-.336-.492-.684-.684-1.044-.456-.792-.768-1.644-.936-2.556h-4.14V25.1h8.46c0-1.512.384-2.916 1.152-4.212.336-.552.732-1.008 1.188-1.368h1.08V26h-19.98v-.54Zm23.2031 0 2.16-.54V1.88l-2.16-.54V.799998h9.18c4.296 0 7.584 1.104002 9.864 3.312002 2.304 2.208 3.456 5.304 3.456 9.288s-1.152 7.08-3.456 9.288c-2.28 2.208-5.568 3.312-9.864 3.312h-9.18v-.54Zm9.18-.36c2.232 0 3.96-.9 5.184-2.7 1.224-1.824 1.836-4.824 1.836-9s-.612-7.164-1.836-8.964c-1.224-1.824-2.952-2.736-5.184-2.736h-1.08v23.4h1.08Z" fill="#1F2B6C"/><path d="m84.8586 25.46 2.16-.54V1.88l-2.16-.54V.799998h9.18c4.296 0 7.5844 1.104002 9.8644 3.312002 2.304 2.208 3.456 5.304 3.456 9.288s-1.152 7.08-3.456 9.288C101.623 24.896 98.3346 26 94.0386 26h-9.18v-.54Zm9.18-.36c2.232 0 3.96-.9 5.184-2.7 1.2244-1.824 1.8364-4.824 1.8364-9s-.612-7.164-1.8364-8.964c-1.224-1.824-2.952-2.736-5.184-2.736h-1.08v23.4h1.08Zm16.5544.9v-.54l2.16-.54V1.88l-2.16-.54V.799998h10.26V1.34l-2.16.54v23.04l2.16.54V26h-10.26Zm25.912.54c-3.84 0-6.84-1.14-9-3.42-2.16-2.28-3.24-5.52-3.24-9.72 0-2.76.468-5.124 1.404-7.092.96-1.992 2.292-3.492 3.996-4.5 1.728-1.032001 3.72-1.548001 5.976-1.548001 1.368 0 2.748.396 4.14 1.188001.528.288 1.056.672 1.584 1.152.408-.624.828-1.116 1.26-1.476.432-.312002.672-.480002.72-.504002h.9V7.46h-1.44c-.312-1.152-.78-2.196-1.404-3.132-.576-.912-1.296-1.668-2.16-2.268-.84-.6-1.812-.9-2.916-.9-1.656 0-3.036.96-4.14 2.88-1.08 1.92-1.62 5.04-1.62 9.36 0 4.392.588 7.536 1.764 9.432 1.2 1.872 2.832 2.808 4.896 2.808 1.128 0 2.196-.312 3.204-.936 1.032-.648 1.86-1.5 2.484-2.556.648-1.056.972-2.172.972-3.348h.9c0 1.368-.372 2.652-1.116 3.852-.72 1.176-1.716 2.124-2.988 2.844-1.248.696-2.64 1.044-4.176 1.044Zm8.13-1.08 2.88-1.08 9.9-23.940001h1.08L168.755 24.92l1.8.54V26h-4.32c-1.248 0-2.268-.276-3.06-.828-.792-.576-1.38-1.32-1.764-2.232l-1.836-4.32h-8.604l-2.376 5.76 2.7 1.08V26h-6.66v-.54Zm6.696-7.74h7.884l-3.96-9.468-3.924 9.468Zm20.293 7.74 2.16-.54V1.88l-2.16-.54V.799998h10.26V1.34l-2.16.54V25.1h7.74c0-1.512.384-2.916 1.152-4.212.336-.552.732-1.008 1.188-1.368h1.08V26h-19.26v-.54Z" fill="#159EEC"/></svg>