<svg width="23" height="22" viewBox="0 0 23 22" fill="none" xmlns="http://www.w3.org/2000/svg"><path d="M13.8155 19.0829c.3327-.1934.5746-.5136.6724-.8901.0978-.3766.0435-.7786-.1509-1.1176l-.7331-1.2784c-.1944-.3391-.5131-.5874-.8858-.6904-.3728-.103-.7692-.0521-1.1019.1413-2.50921 1.4585-3.97538-1.0983-4.70847-2.3767-.73309-1.2784-2.19926-3.83518.30994-5.29374.33274-.19342.57462-.51361.67242-.89012s.04352-.77852-.15091-1.11757l-.73309-1.2784c-.19442-.33906-.51307-.58739-.88583-.69037-.37277-.10298-.76911-.05217-1.10185.14125C1.8819 5.56526.733088 7.93758 4.39853 14.3296c3.66544 6.392 6.28047 6.5765 9.41697 4.7533Z" stroke="#1F2B6C" stroke-width="1.5" stroke-linecap="round" stroke-linejoin="round"/><path d="M20.4925 13.8036c.6665-2.5712.2951-5.31571-1.0324-7.63069-1.3275-2.31498-3.5026-4.01103-6.0474-4.71551m3.2386 11.285c.1986-.7636.2462-1.5609.1402-2.3464-.106-.78545-.3635-1.54367-.7578-2.23135-.3943-.68767-.9178-1.29132-1.5404-1.77646-.6227-.48513-1.3323-.84224-2.0884-1.05094m.4259 6.33625c.1332-.5145.0588-1.0636-.2068-1.5269-.2656-.46316-.7008-.80256-1.2099-.94363" stroke="#159EEC" stroke-width="1.5" stroke-linecap="round" stroke-linejoin="round"/></svg>