<svg width="23" height="23" viewBox="0 0 23 23" fill="none" xmlns="http://www.w3.org/2000/svg"><path d="m20.7454.4346-.0075.002919L1.14093 8.54447a1.0806 1.0806 0 0 0-.424664.31334 1.08065 1.08065 0 0 0-.225647.47707 1.13065 1.13065 0 0 0 .023267.55326 1.13058 1.13058 0 0 0 .283195.47586l3.674239 3.6742c.18124.1811.41999.2933.67511.3173.25511.024.5106-.0418.72243-.186l8.95174-6.15801c.0353-.02406.0779-.03504.1205-.03104a.183288.183288 0 0 1 .1125.05293c.0302.03021.049.07002.053.11257a.183268.183268 0 0 1-.0311.12046L8.9178 17.2178c-.14422.2117-.21012.4671-.18632.7221.02379.255.13577.4938.31666.6751l3.67486 3.6749c.1265.1267.2824.2199.4538.2714.1714.0515.353.0597.5283.0237.2115-.0426.4058-.1466.5585-.299.106-.1062.1897-.2324.2462-.3714l8.1394-19.56391.0032-.00908c.1063-.26658.1322-.55848.0743-.83958-.0578-.28111-.1968-.539086-.3997-.742017-.2029-.202931-.4609-.341913-.742-.39975a1.46785 1.46785 0 0 0-.8396.074337Z" fill="#1F2B6C"/></svg>